<svg xmlns="http://www.w3.org/2000/svg" version="1.1" xmlns:xlink="http://www.w3.org/1999/xlink" xmlns:svgjs="http://svgjs.dev/svgjs" width="1500" height="1500" viewBox="0 0 1500 1500"><rect width="1500" height="1500" fill="#ffffff"></rect><g transform="matrix(0.6666666666666666,0,0,0.6666666666666666,249.212108830585,326.01025641025643)"><svg viewBox="0 0 291 247" data-background-color="#ffffff" preserveAspectRatio="xMidYMid meet" height="1273" width="1500" xmlns="http://www.w3.org/2000/svg" xmlns:xlink="http://www.w3.org/1999/xlink"><g id="tight-bounds" transform="matrix(1,0,0,1,0.22927633029976846,-0.09999999999999432)"><svg viewBox="0 0 290.54144733940046 247.2" height="247.2" width="290.54144733940046"><g><svg viewBox="0 0 395.52 336.51840346821666" height="247.2" width="290.54144733940046"><g transform="matrix(1,0,0,1,0,204.19699458339377)"><svg viewBox="0 0 395.52 132.3214088848229" height="132.3214088848229" width="395.52"><g id="textblocktransform"><svg viewBox="0 0 395.52 132.3214088848229" height="132.3214088848229" width="395.52" id="textblock"><g><svg viewBox="0 0 395.52 90.34720812182739" height="90.34720812182739" width="395.52"><g transform="matrix(1,0,0,1,0,0)"><svg width="395.52" viewBox="1.9 -35.5 157.59 36" height="90.34720812182739" data-palette-color="#8eb4e5"><path d="M14.6 0.5L14.6 0.5Q10.9 0.5 8.1-0.6 5.3-1.7 2.7-4.1L2.7-4.1Q2.35-4.45 2.13-4.88 1.9-5.3 1.9-5.8L1.9-5.8Q1.9-6.6 2.48-7.23 3.05-7.85 3.9-7.85L3.9-7.85Q4.6-7.85 5.15-7.3L5.15-7.3Q7.1-5.4 9.38-4.4 11.65-3.4 14.5-3.4L14.5-3.4Q16.7-3.4 18.48-4.1 20.25-4.8 21.3-6.05 22.35-7.3 22.35-8.95L22.35-8.95Q22.3-10.95 21.18-12.25 20.05-13.55 18.07-14.43 16.1-15.3 13.5-15.9L13.5-15.9Q11.2-16.45 9.28-17.25 7.35-18.05 5.95-19.23 4.55-20.4 3.78-22.08 3-23.75 3-26L3-26Q3-28.85 4.5-31 6-33.15 8.65-34.33 11.3-35.5 14.75-35.5L14.75-35.5Q17.8-35.5 20.53-34.5 23.25-33.5 24.9-31.75L24.9-31.75Q25.9-30.8 25.9-29.9L25.9-29.9Q25.9-29.15 25.28-28.53 24.65-27.9 23.85-27.9L23.85-27.9Q23.3-27.9 22.85-28.3L22.85-28.3Q22-29.25 20.7-30 19.4-30.75 17.85-31.2 16.3-31.65 14.75-31.65L14.75-31.65Q12.45-31.65 10.7-30.98 8.95-30.3 7.98-29.08 7-27.85 7-26.15L7-26.15Q7-24.25 8.1-23.03 9.2-21.8 11.05-21.03 12.9-20.25 15.15-19.65L15.15-19.65Q17.6-19.05 19.68-18.28 21.75-17.5 23.25-16.35 24.75-15.2 25.58-13.43 26.4-11.65 26.4-9.05L26.4-9.05Q26.4-6.3 24.85-4.15 23.3-2 20.63-0.78 17.95 0.45 14.6 0.5ZM36.25-3.95L52.4-3.95Q53.25-3.95 53.85-3.38 54.45-2.8 54.45-1.95L54.45-1.95Q54.45-1.1 53.85-0.55 53.25 0 52.4 0L52.4 0 35.1 0Q34.25 0 33.67-0.6 33.1-1.2 33.1-2.05L33.1-2.05 33.1-33Q33.1-33.85 33.7-34.43 34.3-35 35.2-35L35.2-35Q36.05-35 36.65-34.43 37.25-33.85 37.25-33L37.25-33 37.25-3.05 36.25-3.95ZM91.25-17.5L91.25-17.5Q91.25-13.65 90-10.38 88.75-7.1 86.5-4.65 84.25-2.2 81.15-0.85 78.05 0.5 74.4 0.5L74.4 0.5Q70.7 0.5 67.62-0.85 64.55-2.2 62.3-4.65 60.05-7.1 58.8-10.38 57.55-13.65 57.55-17.5L57.55-17.5Q57.55-21.4 58.8-24.68 60.05-27.95 62.3-30.38 64.55-32.8 67.62-34.15 70.7-35.5 74.4-35.5L74.4-35.5Q78.05-35.5 81.15-34.15 84.25-32.8 86.5-30.38 88.75-27.95 90-24.68 91.25-21.4 91.25-17.5ZM86.95-17.5L86.95-17.5Q86.95-21.6 85.32-24.75 83.7-27.9 80.9-29.7 78.09-31.5 74.4-31.5L74.4-31.5Q70.7-31.5 67.87-29.7 65.05-27.9 63.45-24.75 61.84-21.6 61.84-17.5L61.84-17.5Q61.84-13.45 63.45-10.28 65.05-7.1 67.87-5.3 70.7-3.5 74.4-3.5L74.4-3.5Q78.09-3.5 80.9-5.3 83.7-7.1 85.32-10.28 86.95-13.45 86.95-17.5ZM129.44-17.5L129.44-17.5Q129.44-13.65 128.19-10.38 126.94-7.1 124.69-4.65 122.44-2.2 119.34-0.85 116.24 0.5 112.59 0.5L112.59 0.5Q108.89 0.5 105.82-0.85 102.74-2.2 100.49-4.65 98.24-7.1 96.99-10.38 95.74-13.65 95.74-17.5L95.74-17.5Q95.74-21.4 96.99-24.68 98.24-27.95 100.49-30.38 102.74-32.8 105.82-34.15 108.89-35.5 112.59-35.5L112.59-35.5Q116.24-35.5 119.34-34.15 122.44-32.8 124.69-30.38 126.94-27.95 128.19-24.68 129.44-21.4 129.44-17.5ZM125.14-17.5L125.14-17.5Q125.14-21.6 123.52-24.75 121.89-27.9 119.09-29.7 116.29-31.5 112.59-31.5L112.59-31.5Q108.89-31.5 106.07-29.7 103.24-27.9 101.64-24.75 100.04-21.6 100.04-17.5L100.04-17.5Q100.04-13.45 101.64-10.28 103.24-7.1 106.07-5.3 108.89-3.5 112.59-3.5L112.59-3.5Q116.29-3.5 119.09-5.3 121.89-7.1 123.52-10.28 125.14-13.45 125.14-17.5ZM138.09-35L149.79-35Q152.54-35 154.74-33.65 156.94-32.3 158.22-29.95 159.49-27.6 159.49-24.6L159.49-24.6Q159.49-21.65 158.22-19.25 156.94-16.85 154.74-15.45 152.54-14.05 149.79-14.05L149.79-14.05 139.64-14.05 139.99-14.65 139.99-2.05Q139.99-1.2 139.44-0.6 138.89 0 138.04 0L138.04 0Q137.14 0 136.62-0.6 136.09-1.2 136.09-2.05L136.09-2.05 136.09-33Q136.09-33.85 136.66-34.43 137.24-35 138.09-35L138.09-35ZM139.64-17.9L149.79-17.9Q151.44-17.9 152.69-18.8 153.94-19.7 154.69-21.25 155.44-22.8 155.44-24.6L155.44-24.6Q155.44-26.5 154.69-27.95 153.94-29.4 152.69-30.28 151.44-31.15 149.79-31.15L149.79-31.15 139.64-31.15 139.99-31.7 139.99-17.4 139.64-17.9Z" opacity="1" transform="matrix(1,0,0,1,0,0)" fill="#000000" class="wordmark-text-0" data-fill-palette-color="primary" id="text-0"></path></svg></g></svg></g><g transform="matrix(1,0,0,1,0,111.67601562639592)"><svg viewBox="0 0 395.52 20.645393258426964" height="20.645393258426964" width="395.52"><g transform="matrix(1,0,0,1,0,0)"><svg width="395.52" viewBox="1.4 -37.6 916.58 47.85" height="20.645393258426964" data-palette-color="#8eb4e5"><path d="M11.1-34.8Q13.7-34.8 15.6-33.85 17.5-32.9 19.25-31L19.25-31 17.6-29.35Q16.05-30.9 14.53-31.6 13-32.3 11.1-32.3L11.1-32.3Q8.6-32.3 7.03-30.68 5.45-29.05 5.45-26.5L5.45-26.5Q5.45-23.95 6.88-22.38 8.3-20.8 11.95-19.45L11.95-19.45Q16.15-17.85 18.13-15.6 20.1-13.35 20.1-9.35L20.1-9.35Q20.1-6.6 18.9-4.35 17.7-2.1 15.53-0.78 13.35 0.55 10.55 0.55L10.55 0.55Q7.75 0.55 5.53-0.55 3.3-1.65 1.4-3.75L1.4-3.75 3.05-5.4Q4.8-3.7 6.53-2.83 8.25-1.95 10.5-1.95L10.5-1.95Q13.5-1.95 15.3-3.95 17.1-5.95 17.1-9.25L17.1-9.25Q17.1-12.2 15.7-13.9 14.3-15.6 10.6-17.05L10.6-17.05Q6.3-18.7 4.42-20.88 2.55-23.05 2.55-26.4L2.55-26.4Q2.55-28.65 3.65-30.58 4.75-32.5 6.7-33.65 8.65-34.8 11.1-34.8L11.1-34.8ZM26.4-26.15L29.2-26.15 29.2 0 26.4 0 26.4-26.15ZM27.75-37.6Q28.65-37.6 29.2-37 29.75-36.4 29.75-35.5L29.75-35.5Q29.75-34.7 29.2-34.1 28.65-33.5 27.75-33.5L27.75-33.5Q26.9-33.5 26.32-34.1 25.75-34.7 25.75-35.5L25.75-35.5Q25.75-36.4 26.3-37 26.85-37.6 27.75-37.6L27.75-37.6ZM58.75-26.7Q61.4-26.7 62.9-24.63 64.4-22.55 64.4-19.15L64.4-19.15 64.4 0 61.65 0 61.65-18.8Q61.65-21.6 60.77-23 59.9-24.4 58.25-24.4L58.25-24.4Q55-24.4 52.4-19L52.4-19 52.4 0 49.65 0 49.65-18.8Q49.65-21.6 48.75-23 47.85-24.4 46.2-24.4L46.2-24.4Q42.95-24.4 40.35-19L40.35-19 40.35 0 37.6 0 37.6-26.15 40-26.15 40.25-21.85Q42.95-26.7 46.75-26.7L46.75-26.7Q48.8-26.7 50.2-25.35 51.59-24 52.09-21.6L52.09-21.6Q54.85-26.7 58.75-26.7L58.75-26.7ZM81.84-26.7Q85.64-26.7 87.64-23.3 89.64-19.9 89.64-13.2L89.64-13.2Q89.64-6.6 87.47-3.03 85.29 0.55 81.39 0.55L81.39 0.55Q79.49 0.55 77.99-0.4 76.49-1.35 75.39-2.95L75.39-2.95 75.39 9.85 72.59 10.25 72.59-26.15 75.04-26.15 75.24-22.5Q77.79-26.7 81.84-26.7L81.84-26.7ZM80.94-1.85Q86.64-1.85 86.64-13.2L86.64-13.2Q86.64-19 85.32-21.68 83.99-24.35 81.34-24.35L81.34-24.35Q77.94-24.35 75.39-19.95L75.39-19.95 75.39-5.75Q77.69-1.85 80.94-1.85L80.94-1.85ZM100.14 0.55Q98.34 0.55 97.24-0.63 96.14-1.8 96.14-3.85L96.14-3.85 96.14-36.8 98.94-37.15 98.94-3.95Q98.94-1.85 100.64-1.85L100.64-1.85Q101.34-1.85 102.04-2.15L102.04-2.15 102.74-0.15Q101.59 0.55 100.14 0.55L100.14 0.55ZM123.79-14.05Q123.79-12.95 123.69-11.95L123.69-11.95 109.39-11.95Q109.59-6.55 111.26-4.2 112.94-1.85 115.84-1.85L115.84-1.85Q117.54-1.85 118.84-2.43 120.14-3 121.54-4.25L121.54-4.25 122.94-2.6Q121.39-1.05 119.66-0.25 117.94 0.55 115.79 0.55L115.79 0.55Q111.44 0.55 108.96-2.88 106.49-6.3 106.49-12.85L106.49-12.85Q106.49-19.5 108.86-23.1 111.24-26.7 115.39-26.7L115.39-26.7Q119.49-26.7 121.64-23.48 123.79-20.25 123.79-14.05L123.79-14.05ZM121.04-14.15L121.04-14.95Q121.04-19.65 119.64-22 118.24-24.35 115.39-24.35L115.39-24.35Q109.74-24.35 109.39-14.15L109.39-14.15 121.04-14.15ZM130.89-4Q131.84-4 132.44-3.38 133.04-2.75 133.04-1.75L133.04-1.75Q133.04-1 132.74-0.15 132.44 0.7 132.34 0.95L132.34 0.95 129.99 7.5 128.14 7.5 129.89 0.25Q128.69-0.45 128.69-1.75L128.69-1.75Q128.69-2.75 129.31-3.38 129.94-4 130.89-4L130.89-4ZM151.08-34.25L153.93-34.25 153.93-2.6 165.58-2.6 165.23 0 151.08 0 151.08-34.25ZM170.48-26.15L173.28-26.15 173.28 0 170.48 0 170.48-26.15ZM171.83-37.6Q172.73-37.6 173.28-37 173.83-36.4 173.83-35.5L173.83-35.5Q173.83-34.7 173.28-34.1 172.73-33.5 171.83-33.5L171.83-33.5Q170.98-33.5 170.4-34.1 169.83-34.7 169.83-35.5L169.83-35.5Q169.83-36.4 170.38-37 170.93-37.6 171.83-37.6L171.83-37.6ZM197.13-28.3L197.98-25.65Q195.98-24.9 192.03-24.9L192.03-24.9Q195.78-22.8 195.78-17.75L195.78-17.75Q195.78-13.75 193.65-11.45 191.53-9.15 187.83-9.15L187.83-9.15Q186.38-9.15 185.13-9.7L185.13-9.7Q183.48-8.45 183.48-6.65L183.48-6.65Q183.48-3.8 187.13-3.8L187.13-3.8 189.83-3.8Q193.33-3.8 195.33-1.98 197.33-0.15 197.33 2.75L197.33 2.75Q197.33 6.15 194.9 8.2 192.48 10.25 187.83 10.25L187.83 10.25Q182.98 10.25 180.85 8.4 178.73 6.55 178.73 2.75L178.73 2.75 181.28 2.75Q181.33 5.55 182.75 6.73 184.18 7.9 187.83 7.9L187.83 7.9Q194.53 7.9 194.53 2.9L194.53 2.9Q194.53 0.75 193.2-0.38 191.88-1.5 189.33-1.5L189.33-1.5 187.13-1.5Q183.98-1.5 182.45-2.75 180.93-4 180.93-6.05L180.93-6.05Q180.93-8.55 183.38-10.45L183.38-10.45Q179.68-12.8 179.68-17.85L179.68-17.85Q179.68-21.9 181.9-24.3 184.13-26.7 187.83-26.7L187.83-26.7Q191.63-26.7 193.45-27.08 195.28-27.45 197.13-28.3L197.13-28.3ZM187.78-24.5Q182.48-24.5 182.48-17.85L182.48-17.85Q182.48-14.75 183.9-13 185.33-11.25 187.73-11.25L187.73-11.25Q192.98-11.25 192.98-17.8L192.98-17.8Q192.98-20.95 191.68-22.73 190.38-24.5 187.78-24.5L187.78-24.5ZM212.32-26.7Q215.17-26.7 216.75-24.68 218.32-22.65 218.32-19.15L218.32-19.15 218.32 0 215.52 0 215.52-18.8Q215.52-24.4 211.77-24.4L211.77-24.4Q208.22-24.4 205.32-18.75L205.32-18.75 205.32 0 202.52 0 202.52-36.8 205.32-37.15 205.32-21.75Q206.77-24.15 208.42-25.43 210.07-26.7 212.32-26.7L212.32-26.7ZM235.57-2.9L236.72-1.1Q234.62 0.55 232.07 0.55L232.07 0.55Q229.52 0.55 228.05-1.05 226.57-2.65 226.57-5.35L226.57-5.35 226.57-23.85 223.07-23.85 223.07-26.15 226.57-26.15 226.57-32.4 229.37-32.75 229.37-26.15 234.87-26.15 234.52-23.85 229.37-23.85 229.37-5.35Q229.37-3.7 230.12-2.78 230.87-1.85 232.37-1.85L232.37-1.85Q233.97-1.85 235.57-2.9L235.57-2.9ZM262.17-26.15L264.82-26.15 259.67 0 255.92 0 251.37-23.5 246.87 0 243.17 0 237.92-26.15 240.67-26.15 245.07-2.3 249.77-26.15 253.17-26.15 257.77-2.3 262.17-26.15ZM285.97-14.05Q285.97-12.95 285.87-11.95L285.87-11.95 271.57-11.95Q271.77-6.55 273.44-4.2 275.12-1.85 278.02-1.85L278.02-1.85Q279.72-1.85 281.02-2.43 282.32-3 283.72-4.25L283.72-4.25 285.12-2.6Q283.57-1.05 281.84-0.25 280.12 0.55 277.97 0.55L277.97 0.55Q273.62 0.55 271.14-2.88 268.67-6.3 268.67-12.85L268.67-12.85Q268.67-19.5 271.04-23.1 273.42-26.7 277.57-26.7L277.57-26.7Q281.67-26.7 283.82-23.48 285.97-20.25 285.97-14.05L285.97-14.05ZM283.22-14.15L283.22-14.95Q283.22-19.65 281.82-22 280.42-24.35 277.57-24.35L277.57-24.35Q271.92-24.35 271.57-14.15L271.57-14.15 283.22-14.15ZM292.46-26.15L295.26-26.15 295.26 0 292.46 0 292.46-26.15ZM293.81-37.6Q294.71-37.6 295.26-37 295.81-36.4 295.81-35.5L295.81-35.5Q295.81-34.7 295.26-34.1 294.71-33.5 293.81-33.5L293.81-33.5Q292.96-33.5 292.39-34.1 291.81-34.7 291.81-35.5L291.81-35.5Q291.81-36.4 292.36-37 292.91-37.6 293.81-37.6L293.81-37.6ZM319.11-28.3L319.96-25.65Q317.96-24.9 314.01-24.9L314.01-24.9Q317.76-22.8 317.76-17.75L317.76-17.75Q317.76-13.75 315.64-11.45 313.51-9.15 309.81-9.15L309.81-9.15Q308.36-9.15 307.11-9.7L307.11-9.7Q305.46-8.45 305.46-6.65L305.46-6.65Q305.46-3.8 309.11-3.8L309.11-3.8 311.81-3.8Q315.31-3.8 317.31-1.98 319.31-0.15 319.31 2.75L319.31 2.75Q319.31 6.15 316.89 8.2 314.46 10.25 309.81 10.25L309.81 10.25Q304.96 10.25 302.84 8.4 300.71 6.55 300.71 2.75L300.71 2.75 303.26 2.75Q303.31 5.55 304.74 6.73 306.16 7.9 309.81 7.9L309.81 7.9Q316.51 7.9 316.51 2.9L316.51 2.9Q316.51 0.75 315.19-0.38 313.86-1.5 311.31-1.5L311.31-1.5 309.11-1.5Q305.96-1.5 304.44-2.75 302.91-4 302.91-6.05L302.91-6.05Q302.91-8.55 305.36-10.45L305.36-10.45Q301.66-12.8 301.66-17.85L301.66-17.85Q301.66-21.9 303.89-24.3 306.11-26.7 309.81-26.7L309.81-26.7Q313.61-26.7 315.44-27.08 317.26-27.45 319.11-28.3L319.11-28.3ZM309.76-24.5Q304.46-24.5 304.46-17.85L304.46-17.85Q304.46-14.75 305.89-13 307.31-11.25 309.71-11.25L309.71-11.25Q314.96-11.25 314.96-17.8L314.96-17.8Q314.96-20.95 313.66-22.73 312.36-24.5 309.76-24.5L309.76-24.5ZM334.31-26.7Q337.16-26.7 338.73-24.68 340.31-22.65 340.31-19.15L340.31-19.15 340.31 0 337.51 0 337.51-18.8Q337.51-24.4 333.76-24.4L333.76-24.4Q330.21-24.4 327.31-18.75L327.31-18.75 327.31 0 324.51 0 324.51-36.8 327.31-37.15 327.31-21.75Q328.76-24.15 330.41-25.43 332.06-26.7 334.31-26.7L334.31-26.7ZM357.56-2.9L358.71-1.1Q356.61 0.55 354.06 0.55L354.06 0.55Q351.51 0.55 350.03-1.05 348.56-2.65 348.56-5.35L348.56-5.35 348.56-23.85 345.06-23.85 345.06-26.15 348.56-26.15 348.56-32.4 351.36-32.75 351.36-26.15 356.86-26.15 356.51-23.85 351.36-23.85 351.36-5.35Q351.36-3.7 352.11-2.78 352.86-1.85 354.36-1.85L354.36-1.85Q355.96-1.85 357.56-2.9L357.56-2.9ZM363.4-4Q364.35-4 364.95-3.38 365.55-2.75 365.55-1.75L365.55-1.75Q365.55-1 365.25-0.15 364.95 0.7 364.85 0.95L364.85 0.95 362.5 7.5 360.65 7.5 362.4 0.25Q361.2-0.45 361.2-1.75L361.2-1.75Q361.2-2.75 361.83-3.38 362.45-4 363.4-4L363.4-4ZM393.45-34.8Q398.85-34.8 401.95-30.38 405.05-25.95 405.05-17.1L405.05-17.1Q405.05-8.4 401.97-3.93 398.9 0.55 393.45 0.55L393.45 0.55Q388.1 0.55 384.97-3.9 381.85-8.35 381.85-17.05L381.85-17.05Q381.85-25.75 385-30.28 388.15-34.8 393.45-34.8L393.45-34.8ZM393.45-32.3Q389.4-32.3 387.15-28.6 384.9-24.9 384.9-17.05L384.9-17.05Q384.9-9.3 387.17-5.63 389.45-1.95 393.45-1.95L393.45-1.95Q397.6-1.95 399.8-5.58 402-9.2 402-17.1L402-17.1Q402-32.3 393.45-32.3L393.45-32.3ZM421.15-26.7Q424.95-26.7 426.95-23.3 428.95-19.9 428.95-13.2L428.95-13.2Q428.95-6.6 426.77-3.03 424.6 0.55 420.7 0.55L420.7 0.55Q418.8 0.55 417.3-0.4 415.8-1.35 414.7-2.95L414.7-2.95 414.7 9.85 411.9 10.25 411.9-26.15 414.35-26.15 414.55-22.5Q417.1-26.7 421.15-26.7L421.15-26.7ZM420.25-1.85Q425.95-1.85 425.95-13.2L425.95-13.2Q425.95-19 424.62-21.68 423.3-24.35 420.65-24.35L420.65-24.35Q417.25-24.35 414.7-19.95L414.7-19.95 414.7-5.75Q417-1.85 420.25-1.85L420.25-1.85ZM451.34-14.05Q451.34-12.95 451.24-11.95L451.24-11.95 436.94-11.95Q437.14-6.55 438.82-4.2 440.49-1.85 443.39-1.85L443.39-1.85Q445.09-1.85 446.39-2.43 447.69-3 449.09-4.25L449.09-4.25 450.49-2.6Q448.94-1.05 447.22-0.25 445.49 0.55 443.34 0.55L443.34 0.55Q438.99 0.55 436.52-2.88 434.04-6.3 434.04-12.85L434.04-12.85Q434.04-19.5 436.42-23.1 438.79-26.7 442.94-26.7L442.94-26.7Q447.04-26.7 449.19-23.48 451.34-20.25 451.34-14.05L451.34-14.05ZM448.59-14.15L448.59-14.95Q448.59-19.65 447.19-22 445.79-24.35 442.94-24.35L442.94-24.35Q437.29-24.35 436.94-14.15L436.94-14.15 448.59-14.15ZM467.64-26.7Q470.49-26.7 472.07-24.68 473.64-22.65 473.64-19.15L473.64-19.15 473.64 0 470.84 0 470.84-18.8Q470.84-24.4 467.09-24.4L467.09-24.4Q463.54-24.4 460.64-18.75L460.64-18.75 460.64 0 457.84 0 457.84-26.15 460.24-26.15 460.54-21.65Q461.99-24.1 463.64-25.4 465.29-26.7 467.64-26.7L467.64-26.7ZM482.44-4Q483.39-4 483.99-3.38 484.59-2.75 484.59-1.75L484.59-1.75Q484.59-1 484.29-0.15 483.99 0.7 483.89 0.95L483.89 0.95 481.54 7.5 479.69 7.5 481.44 0.25Q480.24-0.45 480.24-1.75L480.24-1.75Q480.24-2.75 480.86-3.38 481.49-4 482.44-4L482.44-4ZM512.48-34.8Q517.88-34.8 520.98-30.38 524.08-25.95 524.08-17.1L524.08-17.1Q524.08-8.4 521.01-3.93 517.93 0.55 512.48 0.55L512.48 0.55Q507.13 0.55 504.01-3.9 500.88-8.35 500.88-17.05L500.88-17.05Q500.88-25.75 504.03-30.28 507.18-34.8 512.48-34.8L512.48-34.8ZM512.48-32.3Q508.43-32.3 506.18-28.6 503.93-24.9 503.93-17.05L503.93-17.05Q503.93-9.3 506.21-5.63 508.48-1.95 512.48-1.95L512.48-1.95Q516.63-1.95 518.83-5.58 521.03-9.2 521.03-17.1L521.03-17.1Q521.03-32.3 512.48-32.3L512.48-32.3ZM539.73-26.7Q540.63-26.7 541.73-26.4L541.73-26.4 541.23-23.8Q540.33-24.05 539.43-24.05L539.43-24.05Q537.28-24.05 535.93-22.18 534.58-20.3 533.73-16.5L533.73-16.5 533.73 0 530.93 0 530.93-26.15 533.33-26.15 533.58-20.9Q534.53-23.85 536.03-25.28 537.53-26.7 539.73-26.7L539.73-26.7ZM554.13-26.7Q555.93-26.7 557.38-26.08 558.83-25.45 560.23-24.05L560.23-24.05 558.88-22.35Q557.78-23.35 556.65-23.83 555.53-24.3 554.18-24.3L554.18-24.3Q551.18-24.3 549.48-21.55 547.78-18.8 547.78-12.95L547.78-12.95Q547.78-1.9 554.13-1.9L554.13-1.9Q556.68-1.9 558.98-3.95L558.98-3.95 560.38-2.25Q557.58 0.55 554.13 0.55L554.13 0.55Q549.73 0.55 547.25-2.83 544.78-6.2 544.78-12.9L544.78-12.9Q544.78-19.55 547.28-23.13 549.78-26.7 554.13-26.7L554.13-26.7ZM575.32-26.7Q578.17-26.7 579.75-24.68 581.32-22.65 581.32-19.15L581.32-19.15 581.32 0 578.52 0 578.52-18.8Q578.52-24.4 574.77-24.4L574.77-24.4Q571.22-24.4 568.32-18.75L568.32-18.75 568.32 0 565.52 0 565.52-36.8 568.32-37.15 568.32-21.75Q569.77-24.15 571.42-25.43 573.07-26.7 575.32-26.7L575.32-26.7ZM605.17-14.05Q605.17-12.95 605.07-11.95L605.07-11.95 590.77-11.95Q590.97-6.55 592.65-4.2 594.32-1.85 597.22-1.85L597.22-1.85Q598.92-1.85 600.22-2.43 601.52-3 602.92-4.25L602.92-4.25 604.32-2.6Q602.77-1.05 601.05-0.25 599.32 0.55 597.17 0.55L597.17 0.55Q592.82 0.55 590.35-2.88 587.87-6.3 587.87-12.85L587.87-12.85Q587.87-19.5 590.25-23.1 592.62-26.7 596.77-26.7L596.77-26.7Q600.87-26.7 603.02-23.48 605.17-20.25 605.17-14.05L605.17-14.05ZM602.42-14.15L602.42-14.95Q602.42-19.65 601.02-22 599.62-24.35 596.77-24.35L596.77-24.35Q591.12-24.35 590.77-14.15L590.77-14.15 602.42-14.15ZM617.22-26.7Q621.12-26.7 624.17-23.8L624.17-23.8 622.87-22.1Q621.42-23.3 620.14-23.85 618.87-24.4 617.27-24.4L617.27-24.4Q615.22-24.4 613.94-23.2 612.67-22 612.67-19.9L612.67-19.9Q612.67-18.1 613.79-17 614.92-15.9 617.92-14.8L617.92-14.8Q621.57-13.45 623.17-11.73 624.77-10 624.77-7L624.77-7Q624.77-3.55 622.49-1.5 620.22 0.55 616.82 0.55L616.82 0.55Q612.32 0.55 608.97-2.8L608.97-2.8 610.52-4.4Q611.97-3.1 613.44-2.43 614.92-1.75 616.77-1.75L616.77-1.75Q619.07-1.75 620.49-3.1 621.92-4.45 621.92-6.9L621.92-6.9Q621.92-8.45 621.42-9.43 620.92-10.4 619.72-11.18 618.52-11.95 616.27-12.8L616.27-12.8Q612.82-14.05 611.34-15.7 609.87-17.35 609.87-19.85L609.87-19.85Q609.87-22.8 611.97-24.75 614.07-26.7 617.22-26.7L617.22-26.7ZM639.97-2.9L641.12-1.1Q639.02 0.55 636.47 0.55L636.47 0.55Q633.92 0.55 632.44-1.05 630.97-2.65 630.97-5.35L630.97-5.35 630.97-23.85 627.47-23.85 627.47-26.15 630.97-26.15 630.97-32.4 633.77-32.75 633.77-26.15 639.27-26.15 638.92-23.85 633.77-23.85 633.77-5.35Q633.77-3.7 634.52-2.78 635.27-1.85 636.77-1.85L636.77-1.85Q638.37-1.85 639.97-2.9L639.97-2.9ZM654.01-26.7Q654.91-26.7 656.01-26.4L656.01-26.4 655.51-23.8Q654.61-24.05 653.71-24.05L653.71-24.05Q651.56-24.05 650.21-22.18 648.86-20.3 648.01-16.5L648.01-16.5 648.01 0 645.21 0 645.21-26.15 647.61-26.15 647.86-20.9Q648.81-23.85 650.31-25.28 651.81-26.7 654.01-26.7L654.01-26.7ZM674.46-5Q674.46-3.4 674.89-2.63 675.31-1.85 676.21-1.4L676.21-1.4 675.61 0.55Q674.01 0.15 673.16-0.8 672.31-1.75 672.06-3.55L672.06-3.55Q669.71 0.55 665.51 0.55L665.51 0.55Q662.41 0.55 660.56-1.6 658.71-3.75 658.71-7.25L658.71-7.25Q658.71-11.35 661.19-13.53 663.66-15.7 668.26-15.7L668.26-15.7 671.71-15.7 671.71-18.7Q671.71-21.55 670.59-22.95 669.46-24.35 667.06-24.35L667.06-24.35Q664.31-24.35 661.06-22.95L661.06-22.95 660.26-24.95Q664.01-26.7 667.31-26.7L667.31-26.7Q670.91-26.7 672.69-24.68 674.46-22.65 674.46-18.9L674.46-18.9 674.46-5ZM665.96-1.7Q669.76-1.7 671.71-6.55L671.71-6.55 671.71-13.65 668.51-13.65Q665.01-13.65 663.34-12.1 661.66-10.55 661.66-7.35L661.66-7.35Q661.66-4.6 662.79-3.15 663.91-1.7 665.96-1.7L665.96-1.7ZM691.91-2.9L693.06-1.1Q690.96 0.55 688.41 0.55L688.41 0.55Q685.86 0.55 684.38-1.05 682.91-2.65 682.91-5.35L682.91-5.35 682.91-23.85 679.41-23.85 679.41-26.15 682.91-26.15 682.91-32.4 685.71-32.75 685.71-26.15 691.21-26.15 690.86-23.85 685.71-23.85 685.71-5.35Q685.71-3.7 686.46-2.78 687.21-1.85 688.71-1.85L688.71-1.85Q690.31-1.85 691.91-2.9L691.91-2.9ZM697.16-26.15L699.96-26.15 699.96 0 697.16 0 697.16-26.15ZM698.51-37.6Q699.41-37.6 699.96-37 700.51-36.4 700.51-35.5L700.51-35.5Q700.51-34.7 699.96-34.1 699.41-33.5 698.51-33.5L698.51-33.5Q697.66-33.5 697.08-34.1 696.51-34.7 696.51-35.5L696.51-35.5Q696.51-36.4 697.06-37 697.61-37.6 698.51-37.6L698.51-37.6ZM715.95-26.7Q720.4-26.7 722.8-23.28 725.2-19.85 725.2-13.15L725.2-13.15Q725.2-6.6 722.73-3.03 720.25 0.55 715.9 0.55L715.9 0.55Q711.55 0.55 709.13-3 706.7-6.55 706.7-13.05L706.7-13.05Q706.7-19.65 709.15-23.18 711.6-26.7 715.95-26.7L715.95-26.7ZM715.95-24.3Q709.65-24.3 709.65-13.05L709.65-13.05Q709.65-1.8 715.9-1.8L715.9-1.8Q722.25-1.8 722.25-13.15L722.25-13.15Q722.25-18.9 720.65-21.6 719.05-24.3 715.95-24.3L715.95-24.3ZM741.75-26.7Q744.6-26.7 746.18-24.68 747.75-22.65 747.75-19.15L747.75-19.15 747.75 0 744.95 0 744.95-18.8Q744.95-24.4 741.2-24.4L741.2-24.4Q737.65-24.4 734.75-18.75L734.75-18.75 734.75 0 731.95 0 731.95-26.15 734.35-26.15 734.65-21.65Q736.1-24.1 737.75-25.4 739.4-26.7 741.75-26.7L741.75-26.7ZM772.9-34.25Q778.9-34.25 781.85-31.7 784.8-29.15 784.8-24L784.8-24Q784.8-13.4 772.85-13.4L772.85-13.4 770.25-13.4 770.25 0 767.4 0 767.4-34.25 772.9-34.25ZM772.9-15.8Q777.4-15.8 779.57-17.65 781.75-19.5 781.75-23.95L781.75-23.95Q781.75-28.15 779.65-30 777.55-31.85 772.95-31.85L772.95-31.85 770.25-31.85 770.25-15.8 772.9-15.8ZM794.24 0.55Q792.44 0.55 791.34-0.63 790.24-1.8 790.24-3.85L790.24-3.85 790.24-36.8 793.04-37.15 793.04-3.95Q793.04-1.85 794.74-1.85L794.74-1.85Q795.44-1.85 796.14-2.15L796.14-2.15 796.84-0.15Q795.69 0.55 794.24 0.55L794.24 0.55ZM815.99-5Q815.99-3.4 816.42-2.63 816.84-1.85 817.74-1.4L817.74-1.4 817.14 0.55Q815.54 0.15 814.69-0.8 813.84-1.75 813.59-3.55L813.59-3.55Q811.24 0.55 807.04 0.55L807.04 0.55Q803.94 0.55 802.09-1.6 800.24-3.75 800.24-7.25L800.24-7.25Q800.24-11.35 802.72-13.53 805.19-15.7 809.79-15.7L809.79-15.7 813.24-15.7 813.24-18.7Q813.24-21.55 812.12-22.95 810.99-24.35 808.59-24.35L808.59-24.35Q805.84-24.35 802.59-22.95L802.59-22.95 801.79-24.95Q805.54-26.7 808.84-26.7L808.84-26.7Q812.44-26.7 814.22-24.68 815.99-22.65 815.99-18.9L815.99-18.9 815.99-5ZM807.49-1.7Q811.29-1.7 813.24-6.55L813.24-6.55 813.24-13.65 810.04-13.65Q806.54-13.65 804.87-12.1 803.19-10.55 803.19-7.35L803.19-7.35Q803.19-4.6 804.32-3.15 805.44-1.7 807.49-1.7L807.49-1.7ZM833.44-2.9L834.59-1.1Q832.49 0.55 829.94 0.55L829.94 0.55Q827.39 0.55 825.91-1.05 824.44-2.65 824.44-5.35L824.44-5.35 824.44-23.85 820.94-23.85 820.94-26.15 824.44-26.15 824.44-32.4 827.24-32.75 827.24-26.15 832.74-26.15 832.39-23.85 827.24-23.85 827.24-5.35Q827.24-3.7 827.99-2.78 828.74-1.85 830.24-1.85L830.24-1.85Q831.84-1.85 833.44-2.9L833.44-2.9ZM845.44-34.8Q843.64-34.8 842.71-33.88 841.79-32.95 841.79-30.9L841.79-30.9 841.79-26.15 847.44-26.15 847.09-23.85 841.79-23.85 841.79 0 838.99 0 838.99-23.85 835.34-23.85 835.34-26.15 838.99-26.15 838.99-30.95Q838.99-33.8 840.66-35.48 842.34-37.15 845.19-37.15L845.19-37.15Q847.74-37.15 850.29-35.75L850.29-35.75 849.34-33.7Q847.34-34.8 845.44-34.8L845.44-34.8ZM859.68-26.7Q864.13-26.7 866.53-23.28 868.93-19.85 868.93-13.15L868.93-13.15Q868.93-6.6 866.46-3.03 863.98 0.55 859.63 0.55L859.63 0.55Q855.28 0.55 852.86-3 850.43-6.55 850.43-13.05L850.43-13.05Q850.43-19.65 852.88-23.18 855.33-26.7 859.68-26.7L859.68-26.7ZM859.68-24.3Q853.38-24.3 853.38-13.05L853.38-13.05Q853.38-1.8 859.63-1.8L859.63-1.8Q865.98-1.8 865.98-13.15L865.98-13.15Q865.98-18.9 864.38-21.6 862.78-24.3 859.68-24.3L859.68-24.3ZM884.48-26.7Q885.38-26.7 886.48-26.4L886.48-26.4 885.98-23.8Q885.08-24.05 884.18-24.05L884.18-24.05Q882.03-24.05 880.68-22.18 879.33-20.3 878.48-16.5L878.48-16.5 878.48 0 875.68 0 875.68-26.15 878.08-26.15 878.33-20.9Q879.28-23.85 880.78-25.28 882.28-26.7 884.48-26.7L884.48-26.7ZM912.33-26.7Q914.98-26.7 916.48-24.63 917.98-22.55 917.98-19.15L917.98-19.15 917.98 0 915.23 0 915.23-18.8Q915.23-21.6 914.35-23 913.48-24.4 911.83-24.4L911.83-24.4Q908.58-24.4 905.98-19L905.98-19 905.98 0 903.23 0 903.23-18.8Q903.23-21.6 902.33-23 901.43-24.4 899.78-24.4L899.78-24.4Q896.53-24.4 893.93-19L893.93-19 893.93 0 891.18 0 891.18-26.15 893.58-26.15 893.83-21.85Q896.53-26.7 900.33-26.7L900.33-26.7Q902.38-26.7 903.78-25.35 905.18-24 905.68-21.6L905.68-21.6Q908.43-26.7 912.33-26.7L912.33-26.7Z" opacity="1" transform="matrix(1,0,0,1,0,0)" fill="#000000" class="slogan-text-1" data-fill-palette-color="secondary" id="text-1"></path></svg></g></svg></g></svg></g></svg></g><g transform="matrix(1,0,0,1,76.83641997220158,0)"><svg viewBox="0 0 241.84716005559682 182.86818707882526" height="182.86818707882526" width="241.84716005559682"><g><svg xmlns="http://www.w3.org/2000/svg" xmlns:xlink="http://www.w3.org/1999/xlink" xml:space="preserve" version="1.1" style="shape-rendering:geometricPrecision;text-rendering:geometricPrecision;image-rendering:optimizeQuality;" viewBox="0 0 477 360.67458975556" x="0" y="0" fill-rule="evenodd" clip-rule="evenodd" width="241.84716005559682" height="182.86818707882526" class="icon-icon-0" data-fill-palette-color="accent" id="icon-0"><g fill="#8eb4e5" data-fill-palette-color="accent"><path class="" d="M0 324c89 12 183-2 346-16-85-44-186-34-302-36 150-61 205-175 204-272 41 43 37 137-2 179 47-23 43-107 36-129 41 75 72 185 95 256 48-4 60-7 100-3-206 57-367 85-477 21z" fill="#000000" data-fill-palette-color="accent"></path></g></svg></g></svg></g><g></g></svg></g><defs></defs></svg><rect width="290.54144733940046" height="247.2" fill="none" stroke="none" visibility="hidden"></rect></g></svg></g></svg>